# xmcd CD database file
#
# Track frame offsets:
#	150
#	22986
#	43259
#	70846
#	91305
#
# Disc length: 1601 seconds
#
# Revision: 0
# Processed by: cddbd v1.5.2PL0 Copyright (c) Steve Scherf et al.
# Submitted via: CDex 1.70beta3
#
DISCID=39063f05
DTITLE=Lee Ritenour - The Cool Jazz Collection 48
DYEAR=2010
DGENRE=Jazz
TTITLE0=Crosstown Kids
TTITLE1=A Little Bumpin'
TTITLE2=4 on 6
TTITLE3=Night Rhythms
TTITLE4=Rio Funk
EXTD=YEAR: 2010
EXTT0=
EXTT1=
EXTT2=
EXTT3=
EXTT4=
PLAYORDER=
